<mxfile host="Electron" agent="Mozilla/5.0 (Windows NT 10.0; Win64; x64) AppleWebKit/537.36 (KHTML, like Gecko) draw.io/24.7.17 Chrome/128.0.6613.36 Electron/32.0.1 Safari/537.36" version="24.7.17">
  <diagram name="Page-1" id="sI1Y_BSzd4AdlZKSsxkL">
    <mxGraphModel dx="1566" dy="1156" grid="1" gridSize="10" guides="1" tooltips="1" connect="1" arrows="1" fold="1" page="1" pageScale="1" pageWidth="850" pageHeight="1100" math="0" shadow="0">
      <root>
        <mxCell id="0" />
        <mxCell id="1" parent="0" />
        <mxCell id="1tPkZBKoetkwBq6yqgOu-6" value="" style="ellipse;whiteSpace=wrap;html=1;fillColor=#6a00ff;opacity=30;fontColor=#ffffff;strokeColor=#3700CC;" parent="1" vertex="1">
          <mxGeometry x="600" y="330" width="240" height="170" as="geometry" />
        </mxCell>
        <mxCell id="1tPkZBKoetkwBq6yqgOu-5" value="" style="ellipse;whiteSpace=wrap;html=1;fillColor=#6a00ff;opacity=30;fontColor=#ffffff;strokeColor=#3700CC;" parent="1" vertex="1">
          <mxGeometry x="80" y="330" width="210" height="172" as="geometry" />
        </mxCell>
        <mxCell id="UPn8nsw803DuwbX5MxwD-7" value="" style="ellipse;whiteSpace=wrap;html=1;fillColor=#a20025;strokeColor=#6F0000;opacity=10;fontColor=#ffffff;" parent="1" vertex="1">
          <mxGeometry x="-51" y="410" width="180" height="750" as="geometry" />
        </mxCell>
        <mxCell id="UPn8nsw803DuwbX5MxwD-6" value="" style="ellipse;whiteSpace=wrap;html=1;fillColor=#340e5e;fontColor=#ffffff;strokeColor=#432D57;opacity=60;gradientColor=none;" parent="1" vertex="1">
          <mxGeometry x="279" y="330" width="320" height="172" as="geometry" />
        </mxCell>
        <mxCell id="UPn8nsw803DuwbX5MxwD-12" style="edgeStyle=orthogonalEdgeStyle;rounded=0;orthogonalLoop=1;jettySize=auto;html=1;exitX=1;exitY=0.5;exitDx=0;exitDy=0;exitPerimeter=0;" parent="1" source="UPn8nsw803DuwbX5MxwD-1" target="UPn8nsw803DuwbX5MxwD-5" edge="1">
          <mxGeometry relative="1" as="geometry" />
        </mxCell>
        <mxCell id="UPn8nsw803DuwbX5MxwD-1" value="" style="shape=mxgraph.cisco.routers.router;sketch=0;html=1;pointerEvents=1;dashed=0;fillColor=#6a00ff;strokeColor=#3700CC;strokeWidth=2;verticalLabelPosition=bottom;verticalAlign=top;align=center;outlineConnect=0;fontColor=#ffffff;" parent="1" vertex="1">
          <mxGeometry x="560" y="400" width="78" height="53" as="geometry" />
        </mxCell>
        <mxCell id="UPn8nsw803DuwbX5MxwD-11" style="edgeStyle=orthogonalEdgeStyle;rounded=0;orthogonalLoop=1;jettySize=auto;html=1;exitX=1;exitY=0.5;exitDx=0;exitDy=0;exitPerimeter=0;endArrow=none;endFill=0;" parent="1" source="UPn8nsw803DuwbX5MxwD-2" target="UPn8nsw803DuwbX5MxwD-1" edge="1">
          <mxGeometry relative="1" as="geometry" />
        </mxCell>
        <mxCell id="UPn8nsw803DuwbX5MxwD-2" value="" style="shape=mxgraph.cisco.routers.router;sketch=0;html=1;pointerEvents=1;dashed=0;fillColor=#6a00ff;strokeColor=#3700CC;strokeWidth=2;verticalLabelPosition=bottom;verticalAlign=top;align=center;outlineConnect=0;fontColor=#ffffff;" parent="1" vertex="1">
          <mxGeometry x="401" y="400" width="78" height="53" as="geometry" />
        </mxCell>
        <mxCell id="UPn8nsw803DuwbX5MxwD-3" value="" style="shape=mxgraph.cisco.routers.router;sketch=0;html=1;pointerEvents=1;dashed=0;fillColor=#6a00ff;strokeColor=#3700CC;strokeWidth=2;verticalLabelPosition=bottom;verticalAlign=top;align=center;outlineConnect=0;fontColor=#ffffff;" parent="1" vertex="1">
          <mxGeometry x="250" y="400" width="78" height="53" as="geometry" />
        </mxCell>
        <mxCell id="UPn8nsw803DuwbX5MxwD-4" value="" style="shape=mxgraph.cisco.routers.router;sketch=0;html=1;pointerEvents=1;dashed=0;fillColor=#a20025;strokeColor=#6F0000;strokeWidth=2;verticalLabelPosition=bottom;verticalAlign=top;align=center;outlineConnect=0;fontColor=#ffffff;" parent="1" vertex="1">
          <mxGeometry y="400" width="78" height="53" as="geometry" />
        </mxCell>
        <mxCell id="UPn8nsw803DuwbX5MxwD-8" value="" style="ellipse;whiteSpace=wrap;html=1;fillColor=#1ba1e2;fontColor=#ffffff;strokeColor=#006EAF;opacity=20;" parent="1" vertex="1">
          <mxGeometry x="789" y="420" width="180" height="710" as="geometry" />
        </mxCell>
        <mxCell id="UPn8nsw803DuwbX5MxwD-5" value="" style="shape=mxgraph.cisco.routers.router;sketch=0;html=1;pointerEvents=1;dashed=0;fillColor=#036897;strokeColor=#ffffff;strokeWidth=2;verticalLabelPosition=bottom;verticalAlign=top;align=center;outlineConnect=0;" parent="1" vertex="1">
          <mxGeometry x="840" y="400" width="78" height="53" as="geometry" />
        </mxCell>
        <mxCell id="UPn8nsw803DuwbX5MxwD-9" value="" style="endArrow=none;html=1;rounded=0;exitX=1;exitY=0.5;exitDx=0;exitDy=0;exitPerimeter=0;entryX=0;entryY=0.5;entryDx=0;entryDy=0;entryPerimeter=0;" parent="1" source="UPn8nsw803DuwbX5MxwD-4" target="UPn8nsw803DuwbX5MxwD-3" edge="1">
          <mxGeometry width="50" height="50" relative="1" as="geometry">
            <mxPoint x="160" y="630" as="sourcePoint" />
            <mxPoint x="210" y="580" as="targetPoint" />
          </mxGeometry>
        </mxCell>
        <mxCell id="UPn8nsw803DuwbX5MxwD-10" style="edgeStyle=orthogonalEdgeStyle;rounded=0;orthogonalLoop=1;jettySize=auto;html=1;exitX=1;exitY=0.5;exitDx=0;exitDy=0;exitPerimeter=0;entryX=0;entryY=0.5;entryDx=0;entryDy=0;entryPerimeter=0;endArrow=none;endFill=0;" parent="1" source="UPn8nsw803DuwbX5MxwD-3" target="UPn8nsw803DuwbX5MxwD-2" edge="1">
          <mxGeometry relative="1" as="geometry" />
        </mxCell>
        <mxCell id="UPn8nsw803DuwbX5MxwD-14" value="" style="endArrow=none;html=1;rounded=0;exitX=1;exitY=0.5;exitDx=0;exitDy=0;exitPerimeter=0;entryX=0;entryY=0.5;entryDx=0;entryDy=0;entryPerimeter=0;" parent="1" source="UPn8nsw803DuwbX5MxwD-1" target="UPn8nsw803DuwbX5MxwD-5" edge="1">
          <mxGeometry width="50" height="50" relative="1" as="geometry">
            <mxPoint x="670" y="610" as="sourcePoint" />
            <mxPoint x="720" y="560" as="targetPoint" />
          </mxGeometry>
        </mxCell>
        <mxCell id="UPn8nsw803DuwbX5MxwD-16" value="&lt;font color=&quot;#f00800&quot; style=&quot;font-size: 17px;&quot;&gt;&lt;b&gt;OSPF&lt;/b&gt;&lt;/font&gt;&lt;div&gt;&lt;font color=&quot;#f00800&quot; style=&quot;font-size: 17px;&quot;&gt;&lt;b&gt;Process ID 1&lt;/b&gt;&lt;/font&gt;&lt;/div&gt;" style="text;html=1;align=center;verticalAlign=middle;resizable=0;points=[];autosize=1;strokeColor=none;fillColor=none;" parent="1" vertex="1">
          <mxGeometry x="-27" y="690" width="130" height="50" as="geometry" />
        </mxCell>
        <mxCell id="UPn8nsw803DuwbX5MxwD-20" value="&lt;font color=&quot;#9933ff&quot; style=&quot;font-size: 14px;&quot;&gt;&lt;b style=&quot;&quot;&gt;BGP AS 1 -&amp;gt; AS 2&lt;/b&gt;&lt;/font&gt;" style="text;html=1;align=center;verticalAlign=middle;resizable=0;points=[];autosize=1;strokeColor=none;fillColor=none;" parent="1" vertex="1">
          <mxGeometry x="104" y="450" width="140" height="30" as="geometry" />
        </mxCell>
        <mxCell id="UPn8nsw803DuwbX5MxwD-22" value="BGP AS -&amp;gt; AS" style="text;html=1;align=center;verticalAlign=middle;resizable=0;points=[];autosize=1;strokeColor=none;fillColor=none;" parent="1" vertex="1">
          <mxGeometry x="670" y="385" width="100" height="30" as="geometry" />
        </mxCell>
        <mxCell id="1tPkZBKoetkwBq6yqgOu-4" style="edgeStyle=orthogonalEdgeStyle;rounded=0;orthogonalLoop=1;jettySize=auto;html=1;exitX=0.5;exitY=1;exitDx=0;exitDy=0;exitPerimeter=0;endArrow=none;endFill=0;" parent="1" source="gIKM9Qrl8S8rRJwK-Yib-1" target="1tPkZBKoetkwBq6yqgOu-1" edge="1">
          <mxGeometry relative="1" as="geometry" />
        </mxCell>
        <mxCell id="gIKM9Qrl8S8rRJwK-Yib-1" value="" style="shape=mxgraph.cisco.routers.router;sketch=0;html=1;pointerEvents=1;dashed=0;fillColor=#a20025;strokeColor=#6F0000;strokeWidth=2;verticalLabelPosition=bottom;verticalAlign=top;align=center;outlineConnect=0;fontColor=#ffffff;" parent="1" vertex="1">
          <mxGeometry y="770" width="78" height="53" as="geometry" />
        </mxCell>
        <mxCell id="1tPkZBKoetkwBq6yqgOu-3" style="edgeStyle=orthogonalEdgeStyle;rounded=0;orthogonalLoop=1;jettySize=auto;html=1;exitX=0.5;exitY=1;exitDx=0;exitDy=0;exitPerimeter=0;endArrow=none;endFill=0;" parent="1" source="gIKM9Qrl8S8rRJwK-Yib-2" target="1tPkZBKoetkwBq6yqgOu-2" edge="1">
          <mxGeometry relative="1" as="geometry" />
        </mxCell>
        <mxCell id="gIKM9Qrl8S8rRJwK-Yib-2" value="" style="shape=mxgraph.cisco.routers.router;sketch=0;html=1;pointerEvents=1;dashed=0;fillColor=#036897;strokeColor=#ffffff;strokeWidth=2;verticalLabelPosition=bottom;verticalAlign=top;align=center;outlineConnect=0;" parent="1" vertex="1">
          <mxGeometry x="840" y="780" width="78" height="53" as="geometry" />
        </mxCell>
        <mxCell id="gIKM9Qrl8S8rRJwK-Yib-3" style="edgeStyle=orthogonalEdgeStyle;rounded=0;orthogonalLoop=1;jettySize=auto;html=1;exitX=0.5;exitY=1;exitDx=0;exitDy=0;exitPerimeter=0;entryX=0.5;entryY=0;entryDx=0;entryDy=0;entryPerimeter=0;endArrow=none;endFill=0;" parent="1" source="UPn8nsw803DuwbX5MxwD-4" target="gIKM9Qrl8S8rRJwK-Yib-1" edge="1">
          <mxGeometry relative="1" as="geometry" />
        </mxCell>
        <mxCell id="gIKM9Qrl8S8rRJwK-Yib-4" style="edgeStyle=orthogonalEdgeStyle;rounded=0;orthogonalLoop=1;jettySize=auto;html=1;exitX=0.5;exitY=1;exitDx=0;exitDy=0;exitPerimeter=0;entryX=0.5;entryY=0;entryDx=0;entryDy=0;entryPerimeter=0;endArrow=none;endFill=0;" parent="1" source="UPn8nsw803DuwbX5MxwD-5" target="gIKM9Qrl8S8rRJwK-Yib-2" edge="1">
          <mxGeometry relative="1" as="geometry" />
        </mxCell>
        <mxCell id="1tPkZBKoetkwBq6yqgOu-1" value="" style="shape=mxgraph.cisco.computers_and_peripherals.pc;sketch=0;html=1;pointerEvents=1;dashed=0;fillColor=#a20025;strokeColor=#6F0000;strokeWidth=2;verticalLabelPosition=bottom;verticalAlign=top;align=center;outlineConnect=0;fontColor=#ffffff;" parent="1" vertex="1">
          <mxGeometry y="1040" width="78" height="70" as="geometry" />
        </mxCell>
        <mxCell id="1tPkZBKoetkwBq6yqgOu-2" value="" style="shape=mxgraph.cisco.computers_and_peripherals.pc;sketch=0;html=1;pointerEvents=1;dashed=0;fillColor=#036897;strokeColor=#ffffff;strokeWidth=2;verticalLabelPosition=bottom;verticalAlign=top;align=center;outlineConnect=0;" parent="1" vertex="1">
          <mxGeometry x="840" y="1020" width="78" height="70" as="geometry" />
        </mxCell>
        <mxCell id="1tPkZBKoetkwBq6yqgOu-10" value="&lt;font style=&quot;font-size: 21px;&quot;&gt;BumbleBGP&lt;/font&gt;" style="text;html=1;align=center;verticalAlign=middle;resizable=0;points=[];autosize=1;strokeColor=none;fillColor=none;" parent="1" vertex="1">
          <mxGeometry x="371" y="245" width="140" height="40" as="geometry" />
        </mxCell>
        <mxCell id="1tPkZBKoetkwBq6yqgOu-11" value="&lt;font style=&quot;font-size: 21px;&quot;&gt;Optimus OSPF&lt;/font&gt;" style="text;html=1;align=center;verticalAlign=middle;resizable=0;points=[];autosize=1;strokeColor=none;fillColor=none;" parent="1" vertex="1">
          <mxGeometry x="-230" y="730" width="160" height="40" as="geometry" />
        </mxCell>
        <mxCell id="1tPkZBKoetkwBq6yqgOu-12" value="&lt;font style=&quot;font-size: 21px;&quot;&gt;EIGRPrime&lt;/font&gt;" style="text;html=1;align=center;verticalAlign=middle;resizable=0;points=[];autosize=1;strokeColor=none;fillColor=none;" parent="1" vertex="1">
          <mxGeometry x="1010" y="750" width="130" height="40" as="geometry" />
        </mxCell>
        <mxCell id="1tPkZBKoetkwBq6yqgOu-13" value="Optimus-1&lt;div&gt;OSPF/BGP RID 1.1.1.1&lt;/div&gt;" style="text;html=1;align=center;verticalAlign=middle;resizable=0;points=[];autosize=1;strokeColor=none;fillColor=none;" parent="1" vertex="1">
          <mxGeometry x="-165" y="406.5" width="150" height="40" as="geometry" />
        </mxCell>
        <mxCell id="1tPkZBKoetkwBq6yqgOu-14" value="Optimus-2&lt;div&gt;OSPF RID 1.1.1.2&lt;/div&gt;" style="text;html=1;align=center;verticalAlign=middle;resizable=0;points=[];autosize=1;strokeColor=none;fillColor=none;" parent="1" vertex="1">
          <mxGeometry x="100" y="765" width="120" height="40" as="geometry" />
        </mxCell>
        <mxCell id="1tPkZBKoetkwBq6yqgOu-15" value="Bumble-1&lt;div&gt;BGP RID 2.2.2.1&lt;/div&gt;" style="text;html=1;align=center;verticalAlign=middle;resizable=0;points=[];autosize=1;strokeColor=none;fillColor=none;" parent="1" vertex="1">
          <mxGeometry x="234" y="448" width="110" height="40" as="geometry" />
        </mxCell>
        <mxCell id="1tPkZBKoetkwBq6yqgOu-16" value="Bumble-2&lt;div&gt;BGP RID 2.2.2.2&lt;/div&gt;" style="text;html=1;align=center;verticalAlign=middle;resizable=0;points=[];autosize=1;strokeColor=none;fillColor=none;" parent="1" vertex="1">
          <mxGeometry x="384" y="448" width="110" height="40" as="geometry" />
        </mxCell>
        <mxCell id="1tPkZBKoetkwBq6yqgOu-17" value="Bumble-3&lt;div&gt;BGP RID 2.2.2.3&lt;/div&gt;" style="text;html=1;align=center;verticalAlign=middle;resizable=0;points=[];autosize=1;strokeColor=none;fillColor=none;" parent="1" vertex="1">
          <mxGeometry x="548" y="448" width="110" height="40" as="geometry" />
        </mxCell>
        <mxCell id="1tPkZBKoetkwBq6yqgOu-18" value="Prime-1&lt;div&gt;EIGRP/BGP RID 3.3.3.1&lt;/div&gt;" style="text;html=1;align=center;verticalAlign=middle;resizable=0;points=[];autosize=1;strokeColor=none;fillColor=none;" parent="1" vertex="1">
          <mxGeometry x="920" y="406.5" width="150" height="40" as="geometry" />
        </mxCell>
        <mxCell id="1tPkZBKoetkwBq6yqgOu-19" value="Optimus-2&lt;div&gt;EIGRP RID 3.3.3.2&lt;/div&gt;" style="text;html=1;align=center;verticalAlign=middle;resizable=0;points=[];autosize=1;strokeColor=none;fillColor=none;" parent="1" vertex="1">
          <mxGeometry x="920" y="790" width="120" height="40" as="geometry" />
        </mxCell>
        <mxCell id="1jXDasSO5Ef96ZuTBkxH-1" value="a1::/64" style="text;html=1;align=center;verticalAlign=middle;resizable=0;points=[];autosize=1;strokeColor=none;fillColor=none;" parent="1" vertex="1">
          <mxGeometry x="70" y="610" width="60" height="30" as="geometry" />
        </mxCell>
        <mxCell id="1jXDasSO5Ef96ZuTBkxH-2" value="a2::/64" style="text;html=1;align=center;verticalAlign=middle;resizable=0;points=[];autosize=1;strokeColor=none;fillColor=none;" parent="1" vertex="1">
          <mxGeometry x="90" y="910" width="60" height="30" as="geometry" />
        </mxCell>
        <mxCell id="1jXDasSO5Ef96ZuTBkxH-3" value="b1::/64" style="text;html=1;align=center;verticalAlign=middle;resizable=0;points=[];autosize=1;strokeColor=none;fillColor=none;" parent="1" vertex="1">
          <mxGeometry x="155" y="355" width="60" height="30" as="geometry" />
        </mxCell>
        <mxCell id="1jXDasSO5Ef96ZuTBkxH-4" value="b2::/64" style="text;html=1;align=center;verticalAlign=middle;resizable=0;points=[];autosize=1;strokeColor=none;fillColor=none;" parent="1" vertex="1">
          <mxGeometry x="328" y="360" width="60" height="30" as="geometry" />
        </mxCell>
        <mxCell id="1jXDasSO5Ef96ZuTBkxH-5" value="b3::/64" style="text;html=1;align=center;verticalAlign=middle;resizable=0;points=[];autosize=1;strokeColor=none;fillColor=none;" parent="1" vertex="1">
          <mxGeometry x="500" y="355" width="60" height="30" as="geometry" />
        </mxCell>
        <mxCell id="1jXDasSO5Ef96ZuTBkxH-6" value="c1::/64" style="text;html=1;align=center;verticalAlign=middle;resizable=0;points=[];autosize=1;strokeColor=none;fillColor=none;" parent="1" vertex="1">
          <mxGeometry x="895" y="600" width="60" height="30" as="geometry" />
        </mxCell>
        <mxCell id="1jXDasSO5Ef96ZuTBkxH-7" value="c2::/64" style="text;html=1;align=center;verticalAlign=middle;resizable=0;points=[];autosize=1;strokeColor=none;fillColor=none;" parent="1" vertex="1">
          <mxGeometry x="900" y="910" width="60" height="30" as="geometry" />
        </mxCell>
        <mxCell id="1jXDasSO5Ef96ZuTBkxH-8" value="&lt;div&gt;g0/0/1&lt;/div&gt;::1" style="text;html=1;align=center;verticalAlign=middle;resizable=0;points=[];autosize=1;strokeColor=none;fillColor=none;" parent="1" vertex="1">
          <mxGeometry x="50" y="828" width="60" height="40" as="geometry" />
        </mxCell>
        <mxCell id="1jXDasSO5Ef96ZuTBkxH-9" value="DHCP" style="text;html=1;align=center;verticalAlign=middle;resizable=0;points=[];autosize=1;strokeColor=none;fillColor=none;" parent="1" vertex="1">
          <mxGeometry x="35" y="1010" width="60" height="30" as="geometry" />
        </mxCell>
        <mxCell id="1jXDasSO5Ef96ZuTBkxH-10" value="&lt;div&gt;g0/0/0&lt;/div&gt;::1" style="text;html=1;align=center;verticalAlign=middle;resizable=0;points=[];autosize=1;strokeColor=none;fillColor=none;" parent="1" vertex="1">
          <mxGeometry x="-20" y="460" width="60" height="40" as="geometry" />
        </mxCell>
        <mxCell id="1jXDasSO5Ef96ZuTBkxH-11" value="&lt;div&gt;g0/0/0&lt;/div&gt;::2" style="text;html=1;align=center;verticalAlign=middle;resizable=0;points=[];autosize=1;strokeColor=none;fillColor=none;" parent="1" vertex="1">
          <mxGeometry x="-15" y="735" width="60" height="40" as="geometry" />
        </mxCell>
        <mxCell id="1jXDasSO5Ef96ZuTBkxH-12" value="&lt;div&gt;g0/0/1&lt;/div&gt;::1" style="text;html=1;align=center;verticalAlign=middle;resizable=0;points=[];autosize=1;strokeColor=none;fillColor=none;" parent="1" vertex="1">
          <mxGeometry x="70" y="390" width="60" height="40" as="geometry" />
        </mxCell>
        <mxCell id="1jXDasSO5Ef96ZuTBkxH-13" value="&lt;div&gt;g0/0/0&lt;/div&gt;::2" style="text;html=1;align=center;verticalAlign=middle;resizable=0;points=[];autosize=1;strokeColor=none;fillColor=none;" parent="1" vertex="1">
          <mxGeometry x="200" y="390" width="60" height="40" as="geometry" />
        </mxCell>
        <mxCell id="1jXDasSO5Ef96ZuTBkxH-14" value="&lt;div&gt;g0/0/1&lt;/div&gt;::1" style="text;html=1;align=center;verticalAlign=middle;resizable=0;points=[];autosize=1;strokeColor=none;fillColor=none;" parent="1" vertex="1">
          <mxGeometry x="311" y="390" width="60" height="40" as="geometry" />
        </mxCell>
        <mxCell id="1jXDasSO5Ef96ZuTBkxH-15" value="b4::/64" style="text;html=1;align=center;verticalAlign=middle;resizable=0;points=[];autosize=1;strokeColor=none;fillColor=none;" parent="1" vertex="1">
          <mxGeometry x="690" y="355" width="60" height="30" as="geometry" />
        </mxCell>
        <mxCell id="1jXDasSO5Ef96ZuTBkxH-18" value="&lt;div&gt;g0/0/0&lt;/div&gt;::2" style="text;html=1;align=center;verticalAlign=middle;resizable=0;points=[];autosize=1;strokeColor=none;fillColor=none;" parent="1" vertex="1">
          <mxGeometry x="354" y="390" width="60" height="40" as="geometry" />
        </mxCell>
        <mxCell id="1jXDasSO5Ef96ZuTBkxH-19" value="&lt;div&gt;g0/0/1&lt;/div&gt;::1" style="text;html=1;align=center;verticalAlign=middle;resizable=0;points=[];autosize=1;strokeColor=none;fillColor=none;" parent="1" vertex="1">
          <mxGeometry x="464" y="390" width="60" height="40" as="geometry" />
        </mxCell>
        <mxCell id="1jXDasSO5Ef96ZuTBkxH-20" value="&lt;div&gt;g0/0/1&lt;/div&gt;::2" style="text;html=1;align=center;verticalAlign=middle;resizable=0;points=[];autosize=1;strokeColor=none;fillColor=none;" parent="1" vertex="1">
          <mxGeometry x="511" y="390" width="60" height="40" as="geometry" />
        </mxCell>
        <mxCell id="1jXDasSO5Ef96ZuTBkxH-21" value="&lt;div&gt;g0/0/0&lt;/div&gt;::2" style="text;html=1;align=center;verticalAlign=middle;resizable=0;points=[];autosize=1;strokeColor=none;fillColor=none;" parent="1" vertex="1">
          <mxGeometry x="630" y="390" width="60" height="40" as="geometry" />
        </mxCell>
        <mxCell id="1jXDasSO5Ef96ZuTBkxH-22" value="&lt;div&gt;g0/0/1&lt;/div&gt;::1" style="text;html=1;align=center;verticalAlign=middle;resizable=0;points=[];autosize=1;strokeColor=none;fillColor=none;" parent="1" vertex="1">
          <mxGeometry x="789" y="390" width="60" height="40" as="geometry" />
        </mxCell>
        <mxCell id="1jXDasSO5Ef96ZuTBkxH-23" value="&lt;div&gt;g0/0/0&lt;/div&gt;::1" style="text;html=1;align=center;verticalAlign=middle;resizable=0;points=[];autosize=1;strokeColor=none;fillColor=none;" parent="1" vertex="1">
          <mxGeometry x="870" y="448" width="60" height="40" as="geometry" />
        </mxCell>
        <mxCell id="1jXDasSO5Ef96ZuTBkxH-24" value="&lt;div&gt;g0/0/1&lt;/div&gt;::2" style="text;html=1;align=center;verticalAlign=middle;resizable=0;points=[];autosize=1;strokeColor=none;fillColor=none;" parent="1" vertex="1">
          <mxGeometry x="875" y="741.5" width="60" height="40" as="geometry" />
        </mxCell>
        <mxCell id="1jXDasSO5Ef96ZuTBkxH-25" value="g0/0/0&lt;br&gt;::1" style="text;html=1;align=center;verticalAlign=middle;resizable=0;points=[];autosize=1;strokeColor=none;fillColor=none;" parent="1" vertex="1">
          <mxGeometry x="885" y="828" width="60" height="40" as="geometry" />
        </mxCell>
        <mxCell id="1jXDasSO5Ef96ZuTBkxH-26" value="DHCP" style="text;html=1;align=center;verticalAlign=middle;resizable=0;points=[];autosize=1;strokeColor=none;fillColor=none;" parent="1" vertex="1">
          <mxGeometry x="875" y="980" width="60" height="30" as="geometry" />
        </mxCell>
        <mxCell id="1jXDasSO5Ef96ZuTBkxH-27" value="&lt;font color=&quot;#3399ff&quot;&gt;&lt;span style=&quot;font-size: 17px;&quot;&gt;&lt;b&gt;EIGRP&lt;/b&gt;&lt;/span&gt;&lt;/font&gt;&lt;br&gt;&lt;div&gt;&lt;font color=&quot;#3399ff&quot; style=&quot;font-size: 17px;&quot;&gt;&lt;b style=&quot;&quot;&gt;Process ID 1&lt;/b&gt;&lt;/font&gt;&lt;/div&gt;" style="text;html=1;align=center;verticalAlign=middle;resizable=0;points=[];autosize=1;strokeColor=none;fillColor=none;" parent="1" vertex="1">
          <mxGeometry x="814" y="690" width="130" height="50" as="geometry" />
        </mxCell>
        <mxCell id="1jXDasSO5Ef96ZuTBkxH-29" value="&lt;font color=&quot;#9933ff&quot; style=&quot;font-size: 14px;&quot;&gt;&lt;b style=&quot;&quot;&gt;BGP AS 2 -&amp;gt; AS 3&lt;/b&gt;&lt;/font&gt;" style="text;html=1;align=center;verticalAlign=middle;resizable=0;points=[];autosize=1;strokeColor=none;fillColor=none;" parent="1" vertex="1">
          <mxGeometry x="650" y="453" width="140" height="30" as="geometry" />
        </mxCell>
        <mxCell id="1jXDasSO5Ef96ZuTBkxH-30" value="&lt;font color=&quot;#9933ff&quot; style=&quot;font-size: 14px;&quot;&gt;&lt;b style=&quot;&quot;&gt;IS-IS area tag bumble&lt;/b&gt;&lt;/font&gt;&lt;div&gt;&lt;font color=&quot;#9933ff&quot; style=&quot;font-size: 14px;&quot;&gt;&lt;b style=&quot;&quot;&gt;BGP AS 2&lt;/b&gt;&lt;/font&gt;&lt;/div&gt;" style="text;html=1;align=center;verticalAlign=middle;resizable=0;points=[];autosize=1;strokeColor=none;fillColor=none;" parent="1" vertex="1">
          <mxGeometry x="354" y="340" width="170" height="50" as="geometry" />
        </mxCell>
      </root>
    </mxGraphModel>
  </diagram>
</mxfile>
